<?xml version="1.0" encoding="UTF-8" standalone="no"?>
<!DOCTYPE svg PUBLIC "-//W3C//DTD SVG 1.1//EN" "http://www.w3.org/Graphics/SVG/1.1/DTD/svg11.dtd">
<svg
    xmlns="http://www.w3.org/2000/svg"
    width="24"
    height="24"
    viewBox="0 0 24 24"
    fill="currentColor"
>
    <path
        d="M12 .5C5.73.5.5 5.73.5 12S5.73 23.5 12 23.5c3.04 0 5.8-1.13 7.93-3.04.25-.23.32-.58.19-.88-.14-.31-.48-.48-.84-.48-.1 0-.2.01-.3.02a8.46 8.46 0 0 1-5.06-1.72c-.4-.26-.59-.71-.52-1.15.07-.43.41-.76.84-.83.87-.13 1.68-.5 2.39-1.04.43-.32.66-.82.66-1.37v-.5c-.02-.8-.43-1.5-1.1-1.93-.12-.09-.26-.17-.41-.23a1.5 1.5 0 0 0-1.1-.01c-.24.1-.47.27-.67.48a3.95 3.95 0 0 1-3.24 1.36c-1.45 0-2.72-.82-3.24-1.36a2.98 2.98 0 0 0-.67-.48 1.5 1.5 0 0 0-1.1.01c-.15.06-.29.14-.41.23-.67.43-1.08 1.13-1.1 1.93v.5c0 .55.23 1.05.66 1.37.71.54 1.52.91 2.39 1.04.43.07.77.4.84.83.07.44-.12.89-.52 1.15a8.46 8.46 0 0 1-5.06 1.72c-.1 0-.2-.01-.3-.02-.36 0-.7.17-.84.48-.13.3-.06.65.19.88A11.95 11.95 0 0 0 12 23.5c6.27 0 11.5-5.23 11.5-11.5S18.27.5 12 .5z" />
</svg>